<svg width="24" height="26" viewBox="0 0 24 26" fill="none" xmlns="http://www.w3.org/2000/svg">
<path d="M8.97617 1.37468C9.16239 0.605324 10.1262 0.347061 10.6722 0.92023L15.3091 5.7883C15.5163 6.00581 15.8102 6.11867 16.1098 6.09565L22.813 5.58065C23.6023 5.52002 24.1457 6.35689 23.7693 7.05324L20.5724 12.9675C20.4295 13.2317 20.4131 13.5462 20.5275 13.824L23.0887 20.04C23.3903 20.7719 22.7623 21.5473 21.9837 21.4045L15.371 20.1917C15.0756 20.1375 14.7714 20.219 14.5426 20.4137L9.42226 24.7704C8.81939 25.2833 7.88781 24.9257 7.78303 24.1411L6.89309 17.4773C6.85333 17.1795 6.68181 16.9154 6.42598 16.758L0.700227 13.2346C0.0260732 12.8197 0.0782975 11.8232 0.792121 11.4811L6.8548 8.57551C7.12569 8.44568 7.32387 8.20095 7.39454 7.90899L8.97617 1.37468Z" fill="white"/>
</svg>
