<svg width="22" height="22" viewBox="0 0 22 22" fill="none" xmlns="http://www.w3.org/2000/svg">
<path d="M11.1225 0.487984C11.6115 -0.13445 12.5955 0.0310957 12.854 0.779283L14.7202 6.18177C14.8183 6.46571 15.0388 6.69051 15.3208 6.79402L20.6865 8.76357C21.4296 9.03633 21.5763 10.0234 20.9446 10.5004L16.3832 13.9447C16.1435 14.1257 15.9978 14.405 15.9865 14.7051L15.7714 20.4168C15.7417 21.2078 14.8483 21.6523 14.1994 21.1989L9.51406 17.9252C9.26781 17.7531 8.95727 17.7009 8.66828 17.7829L3.16967 19.3434C2.40817 19.5595 1.70938 18.8472 1.94006 18.0899L3.60574 12.6223C3.69329 12.3349 3.64701 12.0234 3.47971 11.7739L0.296442 7.02666C-0.144407 6.36921 0.317118 5.4845 1.10855 5.4699L6.82333 5.36446C7.12368 5.35892 7.40562 5.21865 7.59121 4.98244L11.1225 0.487984Z" fill="#FFFAA5"/>
</svg>
